<svg width="30" height="30" viewBox="0 0 30 30" fill="none" xmlns="http://www.w3.org/2000/svg">
<path d="M15 27.5C8.09625 27.5 2.5 21.9037 2.5 15C2.5 8.09625 8.09625 2.5 15 2.5C21.9037 2.5 27.5 8.09625 27.5 15C27.4925 21.9 21.9 27.4925 15 27.5ZM9.65875 18.4837C9.4975 18.4837 9.3375 18.5037 9.18 18.5413L8.9925 18.5925L8.25 19.8638C8.11437 20.09 8.07083 20.3597 8.12835 20.6171C8.18587 20.8745 8.34007 21.1 8.55909 21.247C8.77811 21.3939 9.04522 21.4512 9.30523 21.4068C9.56525 21.3625 9.7983 21.22 9.95625 21.0087L10.0338 20.8925L11.0213 19.1788C10.8612 18.9647 10.6538 18.7906 10.4153 18.67C10.1767 18.5494 9.91352 18.4857 9.64625 18.4837H9.65875ZM16.5138 10.825C16.1248 11.1903 15.867 11.6735 15.78 12.2C15.6406 12.9259 15.7742 13.6777 16.155 14.3113L19.955 20.8937C20.0872 21.1163 20.2981 21.2811 20.546 21.3556C20.7939 21.4301 21.0607 21.4089 21.2938 21.2963C21.5261 21.1817 21.7067 20.9836 21.7994 20.7417C21.892 20.4998 21.89 20.2318 21.7937 19.9912L21.7325 19.8662L20.7325 18.1275H22.22C22.4805 18.1253 22.7305 18.0244 22.9195 17.8451C23.1084 17.6658 23.2224 17.4215 23.2382 17.1614C23.2541 16.9014 23.1707 16.6451 23.0049 16.4441C22.8391 16.2432 22.6033 16.1126 22.345 16.0787L22.22 16.0713H19.545L16.8025 11.3212L16.5163 10.8212L16.5138 10.825ZM7.825 16.0625C7.69068 16.0628 7.55774 16.0897 7.43379 16.1414C7.30985 16.1932 7.19734 16.2689 7.10271 16.3643C7.00808 16.4596 6.93318 16.5727 6.88231 16.697C6.83144 16.8213 6.80559 16.9544 6.80625 17.0887C6.80625 17.6062 7.19125 18.0437 7.705 18.11L7.83 18.1163H17.18C17.2835 17.9085 17.3355 17.6789 17.3319 17.4468C17.3282 17.2147 17.2688 16.9869 17.1588 16.7825C17.0652 16.591 16.9257 16.4257 16.7528 16.3011C16.5798 16.1766 16.3788 16.0968 16.1675 16.0687L16.0162 16.0612H12.8275L17.2375 8.425C17.3733 8.18828 17.4102 7.9075 17.34 7.64375C17.2901 7.45866 17.1895 7.29118 17.0496 7.16015C16.9096 7.02912 16.7359 6.93974 16.5479 6.90207C16.36 6.8644 16.1652 6.87993 15.9856 6.94692C15.806 7.01391 15.6486 7.1297 15.5312 7.28125L15.4537 7.39625L15 8.18875L14.5512 7.39625C14.419 7.17342 14.2079 7.0084 13.9597 6.93385C13.7115 6.85931 13.4444 6.88069 13.2113 6.99375C12.979 7.10881 12.7986 7.3071 12.706 7.54916C12.6133 7.79121 12.6152 8.05928 12.7112 8.3L12.7725 8.425L13.81 10.25L10.4537 16.0625H7.825Z" fill="white"/>
</svg>
