<svg width="142" height="142" viewBox="0 0 142 142" fill="none" xmlns="http://www.w3.org/2000/svg">
<g clip-path="url(#clip0_172_99)">
<path fill-rule="evenodd" clip-rule="evenodd" d="M33.7534 70.5481C34.3702 69.7607 34.8976 69.0794 35.1745 68.7178C36.8537 66.5136 41.6889 61.5449 43.8714 56.9504C45.5378 53.4457 45.6696 50.1478 42.6464 48.0652C39.8986 46.1724 36.1414 46.8565 32.1738 49.1505C23.6348 54.0877 13.946 66.3191 11.9732 70.7701C11.7581 71.2562 11.9761 71.8233 12.4621 72.0384C12.9459 72.2526 13.513 72.0346 13.7281 71.5486C15.6223 67.2777 24.9381 55.5528 33.1355 50.8128C36.3399 48.9606 39.3379 48.1185 41.5573 49.6481C43.7484 51.1565 43.3449 53.5846 42.1368 56.1252C40.0136 60.5971 35.2822 65.4081 33.646 67.5535C32.6209 68.8989 28.5668 73.9197 28.3229 74.4338C28.0171 75.0772 28.4067 75.4786 28.5445 75.6007C28.6511 75.6955 29.2133 76.1338 29.8802 75.57C39.3941 67.5375 59.5532 61.7967 78.0755 63.4792C96.4351 65.1467 113.226 74.1598 116.2 95.7899C116.273 96.3151 116.759 96.6828 117.283 96.6118C117.808 96.5386 118.176 96.0534 118.103 95.5281C114.986 72.8647 97.4844 63.3129 78.2506 61.5657C62.0406 60.0927 44.6291 64.2024 33.7534 70.5481Z" fill="url(#paint0_linear_172_99)"/>
<path fill-rule="evenodd" clip-rule="evenodd" d="M116.845 94.5568C115.188 93.0123 113.588 91.4218 111.81 90.0051C107.075 86.23 101.355 83.3104 95.3818 82.1891C94.8588 82.0922 94.3579 82.4363 94.2595 82.9562C94.1626 83.4792 94.5068 83.98 95.0266 84.0784C100.696 85.1392 106.119 87.9256 110.611 91.5076C112.645 93.1302 114.446 94.9857 116.368 96.7318C116.465 96.8178 117.277 97.6021 117.494 97.7205C117.998 97.9992 118.384 97.7931 118.551 97.6748C118.691 97.5777 118.836 97.4277 118.934 97.1901C119.013 96.9946 119.076 96.5884 119.045 96.0273C118.951 94.2296 118.129 90.0681 118.067 89.3708C117.349 81.3772 118.023 73.8199 118.534 65.8458C118.566 65.3164 118.164 64.8584 117.636 64.8242C117.107 64.7899 116.651 65.1926 116.617 65.7212C116.099 73.7963 115.427 81.4502 116.155 89.5408C116.196 90.0203 116.572 92.663 116.845 94.5568Z" fill="url(#paint1_linear_172_99)"/>
</g>
<defs>
<linearGradient id="paint0_linear_172_99" x1="-3.3153" y1="42.4293" x2="24.5724" y2="144.743" gradientUnits="userSpaceOnUse">
<stop stop-color="#FAB00C"/>
<stop offset="0.51752" stop-color="#FA705B"/>
<stop offset="1" stop-color="#FA0064"/>
</linearGradient>
<linearGradient id="paint1_linear_172_99" x1="93.1772" y1="67.8974" x2="124.915" y2="97.5491" gradientUnits="userSpaceOnUse">
<stop stop-color="#FAB00C"/>
<stop offset="0.51752" stop-color="#FA705B"/>
<stop offset="1" stop-color="#FA0064"/>
</linearGradient>
<clipPath id="clip0_172_99">
<rect width="109.483" height="109.483" fill="white" transform="translate(38.7653) rotate(20.7368)"/>
</clipPath>
</defs>
</svg>
