<svg width="40" height="40" viewBox="0 0 40 40" fill="none" xmlns="http://www.w3.org/2000/svg">
<path d="M21.59 19.3599L26.5184 14.4316L10.6 5.48492C9.54502 4.91492 8.55669 4.83492 7.69002 5.45825L21.59 19.3599ZM27.3584 25.1299L32.4817 22.2483C33.4817 21.6883 34.03 20.8949 34.03 20.0149C34.03 19.1366 33.4817 18.3416 32.4834 17.7816L27.845 15.1766L22.6234 20.3966L27.3584 25.1299ZM6.83335 6.66992C6.72669 6.99825 6.66669 7.36492 6.66669 7.76658V32.2749C6.66669 32.9099 6.80669 33.4566 7.06002 33.8916L20.555 20.3949L6.83335 6.66992ZM21.59 21.4283L8.17002 34.8499C8.42669 34.9483 8.70335 34.9999 8.99502 34.9999C9.51502 34.9999 10.0567 34.8466 10.6084 34.5399L26.0334 25.8783L21.59 21.4283Z" fill="white"/>
</svg>
