<svg width="15" height="15" viewBox="0 0 15 15" fill="none" xmlns="http://www.w3.org/2000/svg">
<path d="M7.10284 0.519304C7.30296 0.257634 7.69704 0.257634 7.89716 0.519304L8.48721 1.29081C8.63698 1.48665 8.90716 1.54408 9.12365 1.42609L9.97648 0.961277C10.2657 0.803627 10.6257 0.963912 10.7021 1.28436L10.9274 2.22915C10.9845 2.46898 11.208 2.63134 11.4538 2.6116L12.4219 2.53385C12.7503 2.50748 13.014 2.80034 12.9534 3.12415L12.7749 4.07888C12.7296 4.32123 12.8677 4.56044 13.1002 4.64237L14.0163 4.96512C14.327 5.07459 14.4488 5.44938 14.2618 5.72057L13.7104 6.52014C13.5704 6.72311 13.5993 6.99781 13.7784 7.16724L14.484 7.8347C14.7233 8.06107 14.6821 8.45299 14.4009 8.62467L13.572 9.13084C13.3616 9.25932 13.2762 9.52202 13.3709 9.74965L13.744 10.6464C13.8706 10.9505 13.6736 11.2918 13.3469 11.3343L12.3837 11.4595C12.1392 11.4913 11.9544 11.6966 11.9483 11.9431L11.9245 12.9141C11.9164 13.2434 11.5975 13.475 11.2818 13.3809L10.351 13.1036C10.1147 13.0332 9.86238 13.1456 9.7566 13.3683L9.33985 14.2456C9.1985 14.5431 8.81304 14.6251 8.56289 14.4107L7.82533 13.7788C7.63811 13.6183 7.36189 13.6183 7.17467 13.7788L6.43711 14.4107C6.18696 14.6251 5.8015 14.5431 5.66015 14.2456L5.2434 13.3683C5.13762 13.1456 4.88528 13.0332 4.649 13.1036L3.71816 13.3809C3.40245 13.475 3.08364 13.2434 3.07554 12.9141L3.05166 11.9431C3.0456 11.6966 2.86078 11.4913 2.61629 11.4595L1.65312 11.3343C1.32645 11.2918 1.12941 10.9505 1.25596 10.6464L1.62908 9.74965C1.72379 9.52202 1.63844 9.25932 1.42802 9.13084L0.59906 8.62467C0.317905 8.45299 0.276712 8.06107 0.51603 7.8347L1.22163 7.16724C1.40074 6.99781 1.42962 6.72311 1.28965 6.52014L0.738234 5.72057C0.551213 5.44938 0.672988 5.07459 0.983693 4.96512L1.89977 4.64237C2.13231 4.56044 2.27042 4.32123 2.2251 4.07888L2.04658 3.12415C1.98603 2.80034 2.24972 2.50748 2.57808 2.53385L3.54624 2.6116C3.792 2.63134 4.01546 2.46898 4.07264 2.22915L4.29787 1.28436C4.37426 0.963912 4.73427 0.803627 5.02352 0.961276L5.87635 1.42609C6.09284 1.54408 6.36302 1.48665 6.51279 1.29081L7.10284 0.519304Z" fill="#3198F5"/>
<path d="M5.5 7.5L7 9L9.5 6" stroke="white" stroke-linecap="round" stroke-linejoin="round"/>
</svg>
